<svg xmlns="http://www.w3.org/2000/svg" xmlns:xlink="http://www.w3.org/1999/xlink" width="190.82" height="155" viewBox="0 0 190.82 155">
  <defs>
    <clipPath id="clip-path">
      <path id="Clip_26" data-name="Clip 26" d="M0,0H20.735V21.5H0Z" transform="translate(0.07 0.362)" fill="none"/>
    </clipPath>
  </defs>
  <g id="Group_43" data-name="Group 43" transform="translate(0)">
    <path id="Fill_1" data-name="Fill 1" d="M18.5,0,0,18.5,18.5,37,37,18.5,18.5,0Z" transform="translate(60)" fill="#fff"/>
    <path id="Fill_2" data-name="Fill 2" d="M18.5,0,0,18.5,18.5,37,37,18.5,18.5,0Z" transform="translate(97)" fill="#fff"/>
    <path id="Fill_3" data-name="Fill 3" d="M37,18.5,18.5,37,0,18.5,18.5,0Z" transform="translate(60 37)" fill="#fff"/>
    <path id="Fill_4" data-name="Fill 4" d="M37,18.5,18.5,37,0,18.5,18.5,0Z" transform="translate(97 37)" fill="#fff"/>
    <g id="Group_42" data-name="Group 42" transform="translate(0 28)">
      <path id="Fill_5" data-name="Fill 5" d="M10.621,11.288C10.445,6.809,6.049,1.511,3.439,0,4.282,6.189,1.287,6.334.281,9.859a.016.016,0,0,0,0,.009A5.219,5.219,0,0,0,0,11.56c0,.06.007.119.009.179v0c0,.016,0,.032,0,.048s0,0,0,.006a.011.011,0,0,0,0,0,4.542,4.542,0,0,0,.046.5l.009.059c.017.1.036.207.06.307a5.309,5.309,0,0,0,10.494-.83c.005-.091.009-.181.009-.272s0-.181-.009-.272" transform="translate(91.443 0.063)" fill="#fbaf3c"/>
      <path id="Fill_7" data-name="Fill 7" d="M9.274,3.61V21.5H4.968V3.61H0V0H14.243V3.61Z" transform="translate(0 68.352)" fill="#fff"/>
      <path id="Fill_9" data-name="Fill 9" d="M4.306,8.316h9.341V0h4.306V21.5H13.647V11.926H4.306V21.5H0V0H4.306Z" transform="translate(16.959 68.352)" fill="#fff"/>
      <path id="Fill_11" data-name="Fill 11" d="M12.255,3.61H4.306v4.8h7.618v3.61H4.306V17.89h7.949V21.5H0V0H12.255Z" transform="translate(38.224 68.352)" fill="#fff"/>
      <path id="Fill_13" data-name="Fill 13" d="M4.306,0V17.89h6.823V21.5H0V0Z" transform="translate(60.25 68.352)" fill="#fff"/>
      <path id="Fill_15" data-name="Fill 15" d="M4.67,21.5H0L9.507,0h3.378l9.241,21.5H17.489l-1.955-4.514H6.624L4.67,21.5Zm6.46-15.666L7.982,13.57h6.294Z" transform="translate(72.572 68.352)" fill="#fff"/>
      <path id="Fill_17" data-name="Fill 17" d="M0,21.5V0H2.981L16.429,14.344V0h4.306V21.5H17.754L4.306,7.124V21.5Z" transform="translate(96.453 68.352)" fill="#fff"/>
      <path id="Fill_19" data-name="Fill 19" d="M9.275,3.61V21.5H4.968V3.61H0V0H14.243V3.61Z" transform="translate(119.739 68.352)" fill="#fff"/>
      <path id="Fill_21" data-name="Fill 21" d="M12.256,3.61H4.306v4.8h7.618v3.61H4.306V17.89h7.949V21.5H0V0H12.256Z" transform="translate(136.698 68.352)" fill="#fff"/>
      <path id="Fill_23" data-name="Fill 23" d="M4.306,21.5H0V0H6.393c3.277,0,4.783.92,5.631,1.612A6.068,6.068,0,0,1,14.21,6.447a5.814,5.814,0,0,1-2.584,5.061,6.286,6.286,0,0,1-2.417.935L16.1,21.5l-5.365,0-5.9-8.638H4.306V21.5Zm0-18.084V9.9H5.531c1.275,0,4.24-.317,4.24-3.255,0-2.079-1.482-3.224-4.173-3.224Z" transform="translate(151.801 68.351)" fill="#fff"/>
      <g id="Group_27" data-name="Group 27" transform="translate(170.016 67.99)">
        <path id="Clip_26-2" data-name="Clip 26" d="M0,0H20.735V21.5H0Z" transform="translate(0.07 0.362)" fill="none"/>
        <g id="Group_27-2" data-name="Group 27" clip-path="url(#clip-path)">
          <path id="Fill_25" data-name="Fill 25" d="M0,21.5V0H2.981L16.429,14.344V0h4.306V21.5H17.754L4.306,7.124V21.5Z" transform="translate(0.07 0.362)" fill="#fff"/>
        </g>
      </g>
      <path id="Fill_28" data-name="Fill 28" d="M0,21.5V0H2.981L16.429,14.344V0h4.306V21.5H17.754L4.306,7.124V21.5Z" transform="translate(23.815 105.017)" fill="#fff"/>
      <path id="Fill_30" data-name="Fill 30" d="M12.255,3.61H4.306v4.8h7.618v3.61H4.306v5.866h7.949V21.5H0V0H12.255Z" transform="translate(47.763 105.017)" fill="#fff"/>
      <path id="Fill_32" data-name="Fill 32" d="M9.275,3.61V21.5H4.969V3.61H0V0H14.243V3.61Z" transform="translate(62.138 105.017)" fill="#fff"/>
      <path id="Fill_34" data-name="Fill 34" d="M10.931,21.693H7.685L0,.193H4.571L9.506,14.827,14.905,0H17.29l5.1,14.827L27.691.193h4.571l-8.182,21.5H20.834L16,8.058Z" transform="translate(77.805 104.824)" fill="#fff"/>
      <path id="Fill_36" data-name="Fill 36" d="M11.792,22.467a13.48,13.48,0,0,1-4.777-.833,10.949,10.949,0,0,1-3.727-2.322A10.348,10.348,0,0,1,.864,15.763,11.74,11.74,0,0,1,0,11.25,11.038,11.038,0,0,1,3.287,3.171,10.958,10.958,0,0,1,7.015.838,13.412,13.412,0,0,1,11.792,0a13.41,13.41,0,0,1,4.777.838A10.959,10.959,0,0,1,20.3,3.171a11.038,11.038,0,0,1,3.288,8.079,11.738,11.738,0,0,1-.864,4.513A10.349,10.349,0,0,1,20.3,19.312a10.95,10.95,0,0,1-3.727,2.322A13.478,13.478,0,0,1,11.792,22.467Zm0-18.662A7.08,7.08,0,0,0,4.438,11.25a7.065,7.065,0,0,0,7.354,7.413,7.064,7.064,0,0,0,7.353-7.413A7.08,7.08,0,0,0,11.792,3.8Z" transform="translate(109.24 104.533)" fill="#fff"/>
      <path id="Fill_38" data-name="Fill 38" d="M4.306,21.5H0V0H6.393c3.277,0,4.783.92,5.631,1.612A6.068,6.068,0,0,1,14.21,6.447a5.814,5.814,0,0,1-2.584,5.061,6.286,6.286,0,0,1-2.417.935L16.1,21.5l-5.365,0-5.9-8.638H4.306V21.5Zm0-18.084V9.9H5.531c1.275,0,4.241-.317,4.241-3.255,0-2.078-1.482-3.223-4.174-3.223Z" transform="translate(135.108 105.017)" fill="#fff"/>
      <path id="Fill_40" data-name="Fill 40" d="M4.306,9.09,12.421,0h5.432L8.513,9.928,18.351,21.5h-5.7L4.8,11.862l-.5.484V21.5H0V0H4.306Z" transform="translate(153.293 105.017)" fill="#fff"/>
    </g>
  </g>
</svg>
